<svg width="32" height="32" viewBox="0 0 32 32" fill="none" xmlns="http://www.w3.org/2000/svg">
<path d="M3.99803 8.93999L2.93303 9.18499C2.93303 9.18499 1.45503 11.465 1.13303 13.89C0.930028 15.412 0.923028 17.4 1.06303 18.39C1.20503 19.38 1.71503 21.488 2.51803 22.973C3.29003 24.403 4.04303 24.965 4.86503 25.463C5.21803 25.675 5.53203 26.403 6.08203 26.755C6.59803 27.085 7.27803 27.15 7.27803 27.15C7.27803 27.15 9.15803 30.103 13.225 30.615C17.997 31.215 20.333 29.06 20.333 29.06C20.333 29.06 22.243 29.055 24.045 28.283C26.067 27.415 27.147 25.61 27.147 25.61C27.147 25.61 29.68 23.43 30.483 20.82C31.128 18.725 31.145 14.742 30.65 12.867C30.155 10.992 29.198 9.40499 28.438 8.38699C27.833 7.57699 21.078 3.98699 20.263 3.66699C19.45 3.34999 11.883 2.85499 11.6 3.06699C11.318 3.28299 3.99803 8.93999 3.99803 8.93999Z" fill="#AC5811"/>
<path d="M6.633 4.937C4.87 6.372 3.958 7.122 3.043 8.917C2.128 10.713 2.423 13.095 2.588 13.975C2.75 14.855 3.045 16.552 3.208 17.4C3.37 18.25 3.803 20.265 5 21.513C6.678 23.26 8.198 23.863 8.198 23.863C8.198 23.863 9.43 25.773 12.408 26.865C16.323 28.3 18.085 26.213 19.585 25.658C21.085 25.102 22.88 25.07 24.415 23.992C25.948 22.915 27.645 21.61 28.755 18.87C29.865 16.13 29.635 14.922 29.668 14.238C29.7 13.553 29.602 10.258 28.33 8.235C27.058 6.212 25.528 4.998 24.938 4.613C23.633 3.765 18.973 1.737 17.8 1.51C16.625 1.282 12.435 1.637 10.773 2.322C9.11 3.007 6.633 4.937 6.633 4.937Z" fill="url(#paint0_radial_9_75)"/>
<path d="M14.0701 17.865C13.7931 17.778 13.5001 17.365 13.4301 16.483C13.3321 15.225 14.2601 14.877 14.2601 14.877C14.2601 14.877 15.3651 14.585 16.1421 14.307C16.8651 14.05 17.3851 13.72 17.3851 13.72C17.3851 13.72 17.4551 12.372 17.9021 11.975C18.3521 11.578 19.1451 11.613 20.0271 11.715C20.9071 11.818 22.3251 12.405 22.1171 12.94C21.9101 13.475 21.6671 14.01 20.8231 14.495C20.1529 14.8682 19.522 15.3081 18.9401 15.808C18.5071 16.19 17.7151 16.67 16.4021 17.155C15.0891 17.64 14.4701 17.99 14.0701 17.865ZM6.63712 6.61801C5.80712 6.44801 4.63512 8.24501 4.41712 8.84001C4.19712 9.43501 3.97212 10.885 3.94712 11.547C3.91512 12.37 3.90012 13.142 4.24512 13.77C4.51012 14.255 5.15212 14.528 5.73012 14.028C6.30712 13.528 7.31012 12.158 7.57512 11.965C7.84012 11.773 8.61512 11.518 8.31012 10.258C8.18512 9.74301 6.91712 8.67801 6.85512 8.53301C6.79512 8.39001 7.10712 6.71501 6.63712 6.61801ZM12.5051 4.36001C12.5371 4.84301 12.9321 5.61501 13.3601 6.03301C14.0001 6.65501 16.9351 8.76001 17.6951 8.64001C18.4551 8.52001 19.2821 7.15501 19.5251 6.77501C19.7671 6.39501 20.2501 5.86001 20.4401 5.61801C20.6301 5.37501 21.1301 4.82301 20.7171 4.27001C20.3021 3.71801 19.2671 3.35501 18.5771 3.30301C17.8871 3.25001 16.8151 2.80301 15.9001 2.83801C14.9851 2.87301 12.4201 3.11501 12.5051 4.36001ZM24.5851 10.797C24.6421 11.322 25.3801 11.437 25.9681 11.817C26.5551 12.197 26.9531 12.595 27.2981 12.49C27.6431 12.387 28.1131 11.835 28.0051 10.867C27.8681 9.62501 27.0901 8.03501 26.0031 8.08701C25.3451 8.12001 25.4351 9.26301 25.4351 9.26301C25.4351 9.26301 24.5501 10.488 24.5851 10.797Z" fill="#FFC86E"/>
<path d="M10.3681 7.55799C10.3681 7.55799 8.01011 7.54299 8.05211 7.77799C8.09711 8.01199 8.30211 8.78799 8.91711 8.81799C9.53211 8.84799 10.3251 8.90499 10.7051 8.78799C11.0851 8.66999 12.1401 7.81999 12.1401 7.43999C12.1401 7.05999 11.7151 6.50299 11.7151 6.50299L10.3681 7.55799ZM13.7351 11.88C13.7351 11.88 13.7081 11.898 13.6681 11.93C13.5501 12.028 13.3251 12.255 13.4131 12.51C13.5301 12.848 14.2171 13.477 14.8931 13.477C15.5691 13.477 15.9331 12.847 16.0501 12.437C16.1671 12.027 16.1081 11.777 16.1081 11.777L13.7351 11.88ZM8.47711 13.8C8.47711 13.8 8.06711 13.947 8.08211 14.21C8.09711 14.472 8.20011 14.957 8.72711 15.47C9.26011 15.988 10.0331 16.13 10.7351 15.94C11.4381 15.75 11.9501 15.223 11.8931 14.52C11.8351 13.818 11.1601 13.275 11.1601 13.275L8.47711 13.8ZM5.44511 17.683C5.44511 17.683 5.00511 17.785 5.05011 18.078C5.09511 18.37 5.59211 19.293 6.38211 19.19C7.17211 19.087 8.42011 18.18 8.42011 17.827C8.42011 17.475 7.79011 17.007 7.79011 17.007L5.44511 17.683ZM10.8351 21.345C10.8351 21.345 10.6721 22.29 11.9471 22.635C14.0731 23.207 14.2931 21.917 14.2931 21.917L10.8351 21.345ZM19.1831 21.783C19.1831 21.783 18.6131 22.353 19.2601 22.8C19.8669 23.2212 20.6063 23.4071 21.3401 23.323C22.0351 23.245 22.5101 22.69 22.5101 22.69L19.1831 21.783ZM24.5031 15.453C24.5031 15.453 23.4271 15.995 24.2601 16.933C24.8921 17.648 26.3401 17.503 26.9321 17.1C27.3201 16.837 27.4351 16.372 27.2901 16.137C27.1421 15.902 24.5031 15.453 24.5031 15.453ZM20.3431 9.24299C20.3431 9.24299 20.2851 10.47 21.9401 10.43C24.2551 10.373 23.9621 8.93499 23.9621 8.93499L20.3431 9.24299Z" fill="#CF701E"/>
<path d="M21.4129 7.70501C21.4129 7.70501 20.3279 8.38001 20.2099 8.65801C20.0929 8.93501 19.8429 9.81501 21.1019 9.75801C22.3619 9.70001 23.6219 9.65501 24.0469 9.14301C24.4719 8.63001 24.3699 8.16001 24.1949 7.78001C24.0199 7.40001 23.0349 5.96301 22.2529 5.98001C21.7399 5.99001 21.4129 7.70501 21.4129 7.70501Z" fill="#593329"/>
<path d="M22.2481 5.975C22.2481 5.975 21.5601 5.888 20.9581 6.957C20.3581 8.027 20.2031 8.665 20.2031 8.665C20.2031 8.665 21.4251 8.67 22.1571 8.583C22.8901 8.495 23.3871 8.04 23.3871 8.04C23.3871 8.04 22.7911 6.108 22.2481 5.975Z" fill="#925849"/>
<path d="M13.9279 10.973C13.9279 10.973 13.3279 10.933 13.2819 11.165C13.2379 11.4 13.3699 11.998 13.5749 12.26C13.7799 12.523 14.3949 13.11 15.0099 12.992C15.6249 12.874 15.9899 12.272 16.0929 12.065C16.1849 11.87 16.2849 11.66 16.1099 11.398C15.9319 11.133 13.9279 10.973 13.9279 10.973Z" fill="#593329"/>
<path d="M14.82 10.035C14.31 9.98001 13.08 10.957 13.3 11.293C13.545 11.66 13.587 11.428 14.262 11.765C14.82 12.042 15.062 12.3 15.412 12.255C15.762 12.21 16.18 11.632 16.108 11.398C16.035 11.162 15.51 10.108 14.82 10.035Z" fill="#925849"/>
<path d="M9.04788 6.07698L7.84788 6.90698C7.84788 6.90698 7.80288 7.46998 8.05288 7.77698C8.30288 8.08398 8.37488 8.27498 9.54788 8.27498C10.7199 8.27498 11.8179 8.11498 12.0229 7.27998C12.2269 6.44498 11.8679 5.90998 11.6479 5.60198C11.4279 5.29398 9.04788 6.07698 9.04788 6.07698Z" fill="#593329"/>
<path d="M9.06315 4.775C8.79315 4.89 8.15515 5.758 8.00815 6.138C7.86015 6.518 7.82815 6.923 7.84815 6.928C8.09015 6.988 9.51815 7.12 10.1482 7.018C10.7782 6.916 11.2902 6.638 11.4952 6.27C11.6582 5.978 11.6452 5.59 11.6452 5.59C11.6452 5.59 11.2172 4.82 10.6302 4.585C10.0452 4.35 9.16515 4.73 9.06315 4.775Z" fill="#925949"/>
<path d="M8.05706 13.855C8.05706 13.855 7.95706 14.007 8.14706 14.3C8.33706 14.592 8.71006 14.943 9.26706 15.105C9.82506 15.265 10.2201 15.485 10.5851 15.443C10.9521 15.398 11.6701 15.105 11.6971 14.095C11.7271 13.085 11.5231 12.615 11.0831 12.175C10.6431 11.735 10.3251 11.81 10.3251 11.81L8.05706 13.855Z" fill="#593329"/>
<path d="M8.18492 12.92C8.02992 13.18 7.91492 14.025 8.10492 14.215C8.29492 14.405 9.43692 14.418 9.73692 14.385C10.0399 14.352 11.0269 13.887 11.0429 13.535C11.0569 13.182 10.8679 12.715 10.8679 12.54C10.8679 12.365 11.0879 11.955 10.4879 11.808C9.88792 11.661 8.50492 12.378 8.18492 12.92Z" fill="#925849"/>
<path d="M6.20516 16.715C6.20516 16.715 5.26216 16.948 5.20216 17.27C5.14516 17.593 5.28016 17.918 5.60216 18.225C5.92516 18.532 6.16016 18.855 6.40716 18.825C6.65716 18.795 7.31516 18.21 7.52016 18.02C7.72516 17.83 8.01716 17.493 7.99016 17.215C7.97661 17.0648 7.93339 16.9188 7.86302 16.7854C7.79264 16.6521 7.6965 16.534 7.58016 16.438C7.32016 16.218 6.20516 16.715 6.20516 16.715Z" fill="#593329"/>
<path d="M6.44003 15.88C6.00003 15.89 5.66203 16.422 5.51703 16.612C5.37003 16.802 5.12203 17.258 5.22503 17.33C5.32703 17.403 5.75203 17.448 5.95703 17.58C6.16203 17.713 6.47003 17.918 6.70503 17.728C6.94003 17.538 7.14503 17.01 7.26203 16.835C7.37903 16.66 7.58503 16.44 7.58503 16.44C7.58503 16.44 7.14203 15.865 6.44003 15.88Z" fill="#925849"/>
<path d="M11.8179 19.41C11.7299 19.512 10.4849 20.523 10.4849 20.523C10.4849 20.523 10.5299 21.403 10.8069 21.608C11.0849 21.812 11.9499 22.105 12.5069 22.222C13.0649 22.34 14.0599 22.472 14.3099 22.37C14.5599 22.268 14.8219 21.725 14.8369 21.022C14.8519 20.32 14.6019 19.795 14.3249 19.472C14.0479 19.149 13.8249 19.03 13.8249 19.03L11.8179 19.41Z" fill="#593329"/>
<path d="M13.473 20.728C13.635 20.545 13.825 19.028 13.825 19.028C13.825 19.028 12.698 18.163 12.227 18.105C11.757 18.047 11.203 18.09 11.04 18.265C10.88 18.44 10.25 19.07 10.308 19.48C10.365 19.89 10.483 20.52 10.483 20.52C10.483 20.52 13.135 21.11 13.473 20.727" fill="#925849"/>
<path d="M18.9382 21.45C18.9382 21.45 18.7952 22.4 19.8402 22.58C20.8852 22.758 21.7532 22.995 22.2052 22.9C22.6572 22.805 23.1082 22.2 23.1552 21.76C23.2022 21.32 23.2272 20.685 23.1552 20.512C22.9652 20.055 22.0852 18.802 21.6572 18.67C21.4172 18.597 21.1902 18.637 21.1902 18.637L18.9382 21.45Z" fill="#593329"/>
<path d="M19.6149 19.785C19.1479 20.302 18.9079 21.05 18.9329 21.445C18.9569 21.817 20.7299 21.655 20.9399 21.527C21.1499 21.4 21.6079 20.83 21.6219 20.64C21.6359 20.45 21.4919 19.855 21.4679 19.488C21.4419 19.12 21.4329 18.62 21.2299 18.633C21.0269 18.645 20.2799 19.05 19.6149 19.785Z" fill="#925849"/>
<path d="M25.61 13.335C25.61 13.335 26.023 13.395 26.53 13.7C27.122 14.055 27.742 14.96 27.695 15.698C27.648 16.435 27.005 16.768 26.222 16.78C25.44 16.792 24.675 16.75 24.532 16.345C24.39 15.94 25.61 13.335 25.61 13.335Z" fill="#593329"/>
<path d="M24.985 13.583C24.863 13.753 24.545 14.273 24.438 14.937C24.331 15.601 24.403 16.363 24.64 16.495C24.878 16.625 26.185 15.497 26.255 15.377C26.328 15.257 25.837 13.44 25.683 13.357C25.528 13.275 25.14 13.37 24.985 13.583Z" fill="#925849"/>
<defs>
<radialGradient id="paint0_radial_9_75" cx="0" cy="0" r="1" gradientUnits="userSpaceOnUse" gradientTransform="translate(16.041 14.399) scale(13.3005)">
<stop offset="0.507" stop-color="#F29F58"/>
<stop offset="0.715" stop-color="#F09D56"/>
<stop offset="0.826" stop-color="#EB9550"/>
<stop offset="0.914" stop-color="#E18745"/>
<stop offset="0.99" stop-color="#D47436"/>
<stop offset="1" stop-color="#D27133"/>
</radialGradient>
</defs>
</svg>
